<svg xmlns="http://www.w3.org/2000/svg" xml:space="preserve" viewBox="0 0 999 167"><path d="M522.4 149s-79.8-.1-82.6-.2l.2-17.8c.4 0 41.6 1.8 56.5 2 3.6.1 7 1.7 10.2 3.3v-3c-.4-42.1-15.7-53.1-31.9-64.6-15.2-10.9-32.4-23.2-33.4-59.4l-.1-8.3h78.9v17l-52-1c-3.5 0-7-.8-10.2-2.3l.1 3.2c2.8 21.2 13.2 28.7 26 37.8 18.9 13.5 40.4 28.9 38.4 86.7l-.1 6.6zm154.6 0h-7.7c-5.9 0-72.1.1-74.9 0l.3-18c.4 0 41.5 1.6 56.5 1.8 3.6.1 7 .9 10.2 2.5v-3c-.4-42.1-15.7-53.1-31.9-64.6-15.2-10.9-32.4-23.2-33.4-59.4l-.2-7.3h78.9v16l-52-1.1c-3.5 0-7-.8-10.2-2.3l.1 3.2c2.8 21.2 13.2 28.6 26 37.8 18.9 13.5 40.4 28.9 38.4 86.6l-.1 7.8zm-252.6 0h-90.9l-1-148h93l-1.1 148zm-75.1-16.4 59.3.2.8-116.1-60.9-.3.8 116.2zM31 166c-16.5 0-30.4-4.1-31-4.2l4.5-15.3c.1 0 12.3 3.6 26.4 3.6 11.4 0 21.5-11.5 21.6-20.6L53.1 1l15.9.1-.5 128.5C68.4 148.3 50.2 166 31 166zM139.8.6 129 1 74.6 148.9l14.9 5.6 12.9-36.9h64.1l13 37.1 15-5.6L139.8.6zm-31.5 101.1 26.1-69.9 26.1 69.9h-52.2zM770.6 149c-5.9 0-73.2.3-76.1.2l-12.7-.2L745 24.2c1.5-3 3.5-5.7 5.8-8l-60.6.8V1H775l-62.3 122.3c-1.9 3.8-4.4 7.2-7.5 10.2 20.2.3 61.2-1.5 65.4-1.5v17zm212.5 0L982.2.1 999 0v149zM170.8 49.5 169.9.4l16-.4.9 49.2zm701 99.5-1-148 30.9-1c40.8.2 73.7 34.3 73.7 74.9 0 40.8-33.1 75-73.7 75.1l-29.9-1zm15-131.9.8 116.5 13.9-.6c32 0 58-26.1 58-58.2 0-31.9-25.9-58-57.6-58.2l-15.1.5zm-32.4 131.8-68.9-.3L784.8 1h15.9l.6 131.7 37.3.2.6-131.9h15.9z"/><circle cx="820" cy="10.4" r="10.4"/><circle cx="820" cy="44" r="10.4"/><path d="M318.1 149.4 317.2 1h-16l.8 125.4c0 2.4 1 4.7 2.7 6.4h-2.6c-22.8-.2-27.5-22.1-32.5-58C265 41.5 259.3.1 217.7 0h-15.9l.9 148.8 16-.1-.8-126.4c0-2.4-1-4.7-2.7-6.4h2.6c25.7.1 30.8 23.2 36 61 4.6 33.6 9.9 72 48.4 72.2l15.9.3z"/></svg>