<?xml version="1.0" standalone="no"?>
<!DOCTYPE svg PUBLIC "-//W3C//DTD SVG 1.1//EN" "http://www.w3.org/Graphics/SVG/1.1/DTD/svg11.dtd" >
<svg xmlns="http://www.w3.org/2000/svg">
<metadata>Generated by IcoMoon</metadata>
<defs>
<font id="nmhh-icons" horiz-adv-x="1024">
<font-face units-per-em="1024" ascent="960" descent="-64" />
<missing-glyph horiz-adv-x="1024" />
<glyph unicode="&#x20;" horiz-adv-x="512" d="" />
<glyph unicode="&#xe900;" glyph-name="briefcase" d="M611.556 261.689h-199.111v99.556h-348.444v-298.667c0-54.905 44.7-99.556 99.556-99.556h696.889c54.955 0 99.556 44.651 99.556 99.556v298.667h-348.444v-99.556zM960 759.467h-248.889v149.333c0 27.477-22.251 49.778-49.778 49.778h-298.667c-27.477 0-49.778-22.3-49.778-49.778v-149.333h-248.889c-27.477 0-49.778-22.3-49.778-49.778v-248.889c0-27.477 22.3-49.778 49.778-49.778h348.444v49.778h199.111v-49.778h348.444c27.527 0 49.778 22.3 49.778 49.778v248.889c0 27.477-22.251 49.778-49.778 49.778v0zM611.556 759.467h-199.111v99.556h199.111v-99.556z" />
<glyph unicode="&#xe901;" glyph-name="file-new" horiz-adv-x="853" d="M596.608 958.578h-468.608c-54.905 0-99.556-44.7-99.556-99.556v-796.444c0-54.905 44.651-99.556 99.556-99.556h597.333c54.905 0 99.556 44.651 99.556 99.556v667.719l-228.281 228.281zM177.778 460.8h398.222v-99.556h-398.222v99.556zM675.556 162.133h-497.778v99.556h497.778v-99.556zM526.222 659.911v248.889l248.889-248.889h-248.889z" />
<glyph unicode="&#xe902;" glyph-name="nature-leaf" horiz-adv-x="896" d="M168.519 653.696c-113.244-134.002-107.42-328.981 5.824-456.512l-144.206-170.539 76.011-64.263 144.455 170.887c55.054-34.347 118.62-53.561 184.078-53.561 103.040 0 200.206 45.099 266.56 123.748 127.083 150.18 162.027 551.637 173.426 748.011-161.031-43.605-595.74-167.054-706.148-297.771v0zM274.098 238.101c-104.981 88.754-118.222 246.35-29.518 351.381 62.222 73.621 326.642 170.588 518.784 227.684l-489.266-579.065z" />
<glyph unicode="&#xe903;" glyph-name="network-global" d="M512 972.8c-282.325 0-512-229.76-512-512 0-282.325 229.675-512 512-512s512 229.675 512 512c0 282.24-229.675 512-512 512v0zM936.917 426.069l-85.845 14.293c-4.096 23.083-14.464 43.776-29.141 60.843l77.867 136.32c24.747-53.931 38.869-113.621 38.869-176.725 0-11.733-0.853-23.253-1.749-34.731v0zM849.323 721.067l-101.291-177.237c-7.381 1.323-14.933 2.304-22.699 2.304-19.755 0-38.187-4.821-54.869-12.843l-85.931 85.931c7.979 16.683 12.8 35.157 12.8 54.912 0 19.712-4.821 38.144-12.8 54.827l114.645 114.688c59.008-29.013 110.293-71.040 150.144-122.581v0zM610.432 875.563l-86.229-86.229c-16.683 7.979-35.115 12.8-54.869 12.8-43.008 0-80.853-21.419-104.021-53.931l-129.664 37.035c74.539 63.531 170.923 102.229 276.352 102.229 33.92 0 66.731-4.437 98.432-11.904v0zM170.283 715.179l171.861-49.067c4.224-66.901 59.264-119.979 127.189-119.979 19.755 0 38.187 4.821 54.869 12.757l85.931-85.931c-7.637-16-12.203-33.664-12.544-52.437l-155.776-51.968c-23.467 29.952-59.52 49.579-100.48 49.579-16.256 0-31.616-3.328-45.909-8.875l-177.664 207.275-3.755-3.157c14.165 36.693 33.152 70.784 56.277 101.803v0zM85.333 460.8c0 19.499 1.749 38.528 4.352 57.387l141.099-164.608c-10.795-18.816-17.451-40.277-17.451-63.445 0-38.315 17.109-72.277 43.733-95.701l-22.741-56.917c-91.051 78.251-148.992 194.048-148.992 323.285v0zM306.176 87.296l30.123 75.349c1.707-0.128 3.285-0.512 5.035-0.512 69.888 0 126.464 56.021 127.744 125.568l155.776 51.925c11.947-15.232 27.136-27.691 44.8-36.267l-27.648-248.789c-41.003-13.184-84.651-20.437-130.005-20.437-74.624 0-144.768 19.328-205.824 53.163v0zM732.501 96.171l21.931 197.547c35.584 8.32 65.067 31.488 82.347 62.549l84.779-14.165c-30.123-103.723-98.645-191.019-189.056-245.931v0z" />
<glyph unicode="&#xe904;" glyph-name="projector-screen-graph-pie" d="M1009.778 731.022v149.333c0 27.477-22.251 49.778-49.778 49.778h-896c-27.477 0-49.778-22.3-49.778-49.778v-149.333c0-27.477 22.3-49.778 49.778-49.778v-497.778h-49.778v-99.556h448v-99.556h99.556v99.556h448v99.556h-49.778v497.778c27.527 0 49.778 22.3 49.778 49.778v0zM312.889 283.022c-82.482 0-149.333 66.852-149.333 149.333 0 82.432 66.852 149.333 149.333 149.333v-149.333h149.333c0-82.482-66.901-149.333-149.333-149.333v0zM362.667 482.133v149.333c82.432 0 149.333-66.901 149.333-149.333h-149.333zM860.444 233.244h-298.667v99.556h298.667v-99.556zM860.444 382.578h-199.111v99.556h199.111v-99.556zM860.444 531.911h-149.333v99.556h149.333v-99.556zM910.222 780.8h-796.444v49.778h796.444v-49.778z" />
<glyph unicode="&#xe905;" glyph-name="vote-flag" horiz-adv-x="853" d="M791.836 708.71l-696.889 247.467c-15.232 5.444-32.206 3.168-45.397-6.137-13.241-9.305-21.106-24.351-21.106-40.436v-940.373h99.556v410.547l663.836 235.737c19.812 7.028 33.052 25.687 33.052 46.573s-13.241 39.595-33.052 46.623v0z" />
<glyph unicode="&#xe906;" glyph-name="alarm-clock" d="M512 960c-282.283 0-512-229.717-512-512s229.717-512 512-512c282.283 0 512 229.717 512 512s-229.717 512-512 512v0zM642.446 237.17l-170.667 170.667c-10.638 10.638-16.668 25.088-16.668 40.164v284.444h113.778v-260.892l153.998-153.998-80.441-80.384z" />
<glyph unicode="&#xe907;" glyph-name="calendar" d="M928 842.667h-138.667v92.444h-92.444v-277.333h92.444v92.444h138.667v-693.333h-832v693.333h92.444v92.444h-92.444c-51.029 0-92.444-41.369-92.444-92.444v-693.333c0-51.029 41.415-92.444 92.444-92.444h832c51.029 0 92.444 41.415 92.444 92.444v693.333c0 51.076-41.415 92.444-92.444 92.444v0zM327.111 750.222h323.556v92.444h-323.556v92.444h-92.444v-277.333h92.444zM188.444 565.333h184.889v-184.889h-184.889v184.889zM419.556 565.333h184.889v-184.889h-184.889v184.889zM650.667 565.333h184.889v-184.889h-184.889v184.889zM188.444 334.222h184.889v-184.889h-184.889v184.889zM419.556 334.222h184.889v-184.889h-184.889v184.889z" />
<glyph unicode="&#xe908;" glyph-name="check-circle" d="M514.091 946.347c-274.923 0-497.778-221.582-497.778-494.933s222.855-494.933 497.778-494.933c274.923 0 497.778 221.582 497.778 494.933s-222.905 494.933-497.778 494.933v0zM476.757 166.827l-248.889 185.6 74.667 98.987 149.333-111.36 261.333 346.453 99.556-74.24-336-445.44z" />
<glyph unicode="&#xe909;" glyph-name="content-filter" d="M819.2 960h-614.4c-56.474 0-102.4-45.978-102.4-102.4h819.2c0 56.422-45.875 102.4-102.4 102.4v0zM102.4 806.349v-102.4c0-13.107 5.018-26.214 15.002-36.198l292.198-292.198v-388.352c0-20.685 12.493-39.373 31.59-47.309 6.349-2.662 13.005-3.891 19.61-3.891 13.312 0 26.419 5.222 36.198 15.002l102.4 102.4c9.574 9.574 15.002 22.579 15.002 36.198v286.003l292.198 292.198c9.984 9.984 15.002 23.040 15.002 36.147v102.4h-819.2z" />
<glyph unicode="&#xe90a;" glyph-name="file-office-doc" horiz-adv-x="853" d="M149.333 286.222v-138.667c38.272 0 69.333 31.108 69.333 69.333s-31.061 69.333-69.333 69.333v0zM415.111 286.222c-19.136 0-34.667-15.531-34.667-34.667v-69.333c0-19.136 15.531-34.667 34.667-34.667s34.667 15.531 34.667 34.667v69.333c0 19.136-15.531 34.667-34.667 34.667v0zM630.692 956.444h-527.58c-50.983 0-92.444-41.508-92.444-92.444v-832c0-50.983 41.461-92.444 92.444-92.444h647.111c50.983 0 92.444 41.461 92.444 92.444v712.469l-211.975 211.975zM149.333 78.222h-69.333v277.333h69.333c76.498 0 138.667-62.169 138.667-138.667s-62.169-138.667-138.667-138.667v0zM519.111 182.222c0-57.362-46.638-104-104-104s-104 46.638-104 104v69.333c0 57.362 46.638 104 104 104s104-46.638 104-104v-69.333zM773.333 286.222h-104c-19.136 0-34.667-15.531-34.667-34.667v-69.333c0-19.136 15.531-34.667 34.667-34.667h104v-69.333h-104c-57.362 0-104 46.638-104 104v69.333c0 57.362 46.638 104 104 104h104v-69.333zM565.333 679.111v231.111l231.111-231.111h-231.111z" />
<glyph unicode="&#xe90b;" glyph-name="file-office-pdf" horiz-adv-x="853" d="M403.556 286.222v-138.667c38.226 0 69.333 31.108 69.333 69.333s-31.108 69.333-69.333 69.333v0zM184 286.222h-34.667v-69.333h34.667c19.136 0 34.667 15.531 34.667 34.667s-15.531 34.667-34.667 34.667v0zM630.692 956.444h-527.58c-50.983 0-92.444-41.508-92.444-92.444v-832c0-50.983 41.461-92.444 92.444-92.444h647.111c50.983 0 92.444 41.461 92.444 92.444v712.469l-211.975 211.975zM184 147.556h-34.667v-69.333h-69.333v277.333h104c57.316 0 104-46.638 104-104s-46.684-104-104-104v0zM403.556 78.222h-69.333v277.333h69.333c76.498 0 138.667-62.169 138.667-138.667s-62.169-138.667-138.667-138.667v0zM787.2 286.222h-152.533v-46.222h115.556v-69.333h-115.556v-92.444h-69.333v208c0 38.226 31.108 69.333 69.333 69.333h152.533v-69.333zM565.333 679.111v231.111l231.111-231.111h-231.111z" />
<glyph unicode="&#xe90c;" glyph-name="file-office-rtf" horiz-adv-x="853" d="M184 286.222h-34.667v-69.333h34.667c19.136 0 34.667 15.531 34.667 34.667s-15.531 34.667-34.667 34.667v0zM630.692 956.444h-527.58c-50.983 0-92.444-41.508-92.444-92.444v-832c0-50.983 41.461-92.444 92.444-92.444h647.111c50.983 0 92.444 41.461 92.444 92.444v712.469l-211.975 211.975zM288 78.222h-80.288l-40.444 69.333h-17.934v-69.333h-69.333v277.333h104c57.362 0 104-46.638 104-104 0-37.394-19.968-69.934-49.643-88.284l49.643-85.049zM542.222 286.222h-69.333v-208h-69.333v208h-69.333v69.333h208v-69.333zM773.333 286.222h-138.667v-34.667h104v-69.333h-104v-104h-69.333v208c0 38.226 31.108 69.333 69.333 69.333h138.667v-69.333zM565.333 679.111v231.111l231.111-231.111h-231.111z" />
<glyph unicode="&#xe90d;" glyph-name="location-pin" horiz-adv-x="725" d="M362.667 960c-200.296 0-362.667-160.461-362.667-358.4 0-256 362.667-665.6 362.667-665.6s362.667 409.6 362.667 665.6c0 197.939-162.371 358.4-362.667 358.4v0zM362.667 473.6c-71.497 0-129.524 57.293-129.524 128s58.027 128 129.524 128c71.549 0 129.524-57.293 129.524-128s-57.975-128-129.524-128v0z" />
<glyph unicode="&#xe90e;" glyph-name="login" d="M548.198 689.050l-72.397-72.499 117.606-117.35h-593.408v-102.4h592.998l-117.248-117.453 72.499-72.346 240.947 241.459zM512 960c-228.813 0-422.963-150.989-488.397-358.4h108.902c60.979 149.862 207.974 256 379.494 256 225.843 0 409.6-183.757 409.6-409.6s-183.757-409.6-409.6-409.6c-171.52 0-318.515 106.086-379.443 256h-108.954c65.382-207.462 259.533-358.4 488.397-358.4 282.317 0 512 229.683 512 512s-229.683 512-512 512v0z" />
<glyph unicode="&#xe90f;" glyph-name="navigation-drawer" d="M398.222 846.222h625.778v-113.778h-625.778v113.778zM398.222 618.78h417.185v-113.778h-417.185v113.778zM398.222 391.168h208.593v-113.778h-208.593v113.778zM227.556 903.111h-113.778v-739.556h-113.778l170.667-170.667 170.667 170.667h-113.778z" />
<glyph unicode="&#xe910;" glyph-name="search" d="M996.639 94.98l-184.258 184.258c45.843 70.743 70.65 153.075 70.65 239.27-0.047 243.97-197.522 441.493-441.539 441.493-243.97 0-441.493-197.476-441.493-441.493 0-243.924 197.476-441.493 441.493-441.493 86.241 0 168.573 24.807 239.223 70.603l184.211-184.211c36.489-36.582 95.364-36.489 131.666-0.047 36.302 36.302 36.302 95.364 0.047 131.619v0zM93.083 518.507c0 192.542 155.821 348.363 348.41 348.363 192.449 0 348.41-155.774 348.41-348.363 0-93.036-36.256-180.534-102.112-246.298-65.81-65.856-153.261-102.065-246.344-102.065-192.403-0.047-348.363 155.821-348.363 348.363v0z" />
<glyph unicode="&#xe911;" glyph-name="at-sign" d="M512 936.727c-269.452 0-488.727-219.229-488.727-488.727s219.276-488.727 488.727-488.727c99.654 0 195.165 29.463 276.247 85.085l-78.988 115.2c-57.763-39.657-125.999-60.649-197.26-60.649-192.512 0-349.091 156.579-349.091 349.091s156.579 349.091 349.091 349.091c192.512 0 349.091-156.579 349.091-349.091v-36.445c0-29.836-6.656-79.919-51.2-79.919h-18.572c-13.591 0.512-41.053 27.089-41.937 40.448v75.916c0 130.886-106.496 237.382-237.382 237.382s-237.382-106.449-237.382-237.382c0-130.932 106.449-237.382 237.382-237.382 54.505 0 104.169 19.177 144.337 50.223 34.956-40.262 84.945-68.841 134.935-68.841h18.618c112.361 0 190.836 90.252 190.836 219.555v36.445c0 269.498-219.276 488.727-488.727 488.727v0zM512 350.301c-53.9 0-97.745 43.799-97.745 97.745 0 53.853 43.799 97.745 97.745 97.745s97.745-43.846 97.745-97.745c0-53.946-43.846-97.745-97.745-97.745v0z" />
<glyph unicode="&#xe912;" glyph-name="mail" d="M512 491.196l459.008 284.826c-14.746 8.192-31.386 13.312-49.408 13.312h-819.2c-18.022 0-34.714-5.12-49.408-13.312l459.008-284.826zM538.982 387.465c-8.243-5.12-17.613-7.731-26.982-7.731s-18.739 2.611-26.982 7.68l-484.864 300.902c0-0.461-0.154-0.922-0.154-1.331v-460.8c0-56.422 45.926-102.4 102.4-102.4h819.2c56.474 0 102.4 45.978 102.4 102.4v460.8c0 0.461-0.154 0.922-0.154 1.382l-484.864-300.902z" />
<glyph unicode="&#xe913;" glyph-name="file-view" d="M384 277.333c0 164.949 133.717 298.667 298.667 298.667 29.653 0 58.283-4.48 85.333-12.544v200.875l-195.669 195.669h-486.997c-47.061 0-85.333-38.315-85.333-85.333v-768c0-47.061 38.272-85.333 85.333-85.333h444.075c-86.997 52.181-145.408 147.157-145.408 256v0zM512 917.333l213.333-213.333h-213.333v213.333zM860.459 159.872c22.357 33.707 35.541 74.027 35.541 117.461 0 117.632-95.701 213.333-213.333 213.333s-213.333-95.701-213.333-213.333c0-117.632 95.701-213.333 213.333-213.333 43.435 0 83.755 13.184 117.461 35.541l138.539-138.539 60.331 60.331-138.539 138.539zM682.667 149.333c-70.571 0-128 57.429-128 128s57.429 128 128 128c70.571 0 128-57.429 128-128s-57.429-128-128-128v0z" />
<glyph unicode="&#xe914;" glyph-name="network-computer" d="M938.667 618.581h-597.333c-47.061 0-85.333-38.272-85.333-85.333v-384c0-47.019 38.272-85.333 85.333-85.333h256v-42.667h-128v-85.333h341.333v85.333h-128v42.667h256c47.104 0 85.333 38.315 85.333 85.333v384c0 47.061-38.229 85.333-85.333 85.333v0zM938.667 533.248l-0.085-256h-597.248v256h597.333zM85.333 533.248h127.957v-85.333h-127.957v85.333zM85.333 874.581h341.333v-213.333h85.333v256c0 23.595-19.072 42.667-42.667 42.667h-426.667c-23.595 0-42.667-19.072-42.667-42.667v-298.667c0-23.552 19.072-42.667 42.667-42.667h170.624v85.333h-127.957v213.333z" />
<glyph unicode="&#xe915;" glyph-name="phone-pending" d="M588.8 577.076c0-42.772-34.385-77.445-76.8-77.445s-76.8 34.673-76.8 77.445c0 42.772 34.385 77.445 76.8 77.445s76.8-34.673 76.8-77.445zM793.6 577.076c0-42.772-34.385-77.445-76.8-77.445s-76.8 34.673-76.8 77.445c0 42.772 34.385 77.445 76.8 77.445s76.8-34.673 76.8-77.445zM998.4 577.076c0-42.772-34.385-77.445-76.8-77.445s-76.8 34.673-76.8 77.445c0 42.772 34.385 77.445 76.8 77.445s76.8-34.673 76.8-77.445zM563.2 9.143h256c28.314 0 51.2 23.079 51.2 51.63v206.521c0 28.552-22.886 51.63-51.2 51.63h-204.8c-28.314 0-51.2-23.079-51.2-51.63v-51.63c-204.8 0-355.174 158.092-358.4 361.412h51.2c28.314 0 51.2 23.079 51.2 51.63v206.521c0 28.552-22.886 51.63-51.2 51.63h-204.8c-28.262 0-51.2-23.079-51.2-51.63v-258.151c0-313.654 252.16-567.933 563.2-567.933v0z" />
<glyph unicode="&#xe916;" glyph-name="radio" d="M372.582 678.246l268.186 160.973-52.736 87.757-414.464-248.73zM921.6 627.046h-833.331l-2.918-1.741c-48.23-8.192-85.35-50.227-85.35-100.659v-460.8c0-56.269 46.080-102.4 102.4-102.4h819.2c56.32 0 102.4 46.131 102.4 102.4v460.8c0 56.32-46.080 102.4-102.4 102.4v0zM102.4 473.446h716.8v-102.4h-716.8v102.4zM512 166.246h-409.6v102.4h409.6v-102.4zM819.2 63.846c-56.525 0-102.4 45.875-102.4 102.4s45.875 102.4 102.4 102.4c56.525 0 102.4-45.875 102.4-102.4s-45.875-102.4-102.4-102.4v0z" />
<glyph unicode="&#xe917;" glyph-name="share-signal-antenna" d="M512 601.6c-56.627 0-102.4-45.926-102.4-102.4 0-37.734 20.685-70.4 51.2-88.218v-423.782h102.4v423.782c30.515 17.818 51.2 50.483 51.2 88.218 0 56.474-45.875 102.4-102.4 102.4v0zM222.362 788.89l-72.397 72.397c-199.629-199.629-199.629-524.493 0-724.122l72.397 72.397c-159.693 159.693-159.693 419.584 0 579.328v0zM873.984 861.286l-72.397-72.397c77.414-77.414 120.013-180.275 120.013-289.69s-42.598-212.224-120.013-289.587l72.397-72.397c96.717 96.666 150.016 225.229 150.016 361.984s-53.299 265.37-150.016 362.086v0zM294.81 716.442c-58.010-58.061-90.010-135.168-90.010-217.242 0-82.022 32-159.181 90.010-217.19l72.397 72.448c-38.707 38.605-60.006 90.010-60.006 144.742 0 54.682 21.299 106.138 60.006 144.794l-72.397 72.448zM729.19 716.442l-72.397-72.448c38.707-38.656 60.006-90.112 60.006-144.794s-21.299-106.086-60.006-144.742l72.397-72.448c58.010 57.958 90.010 135.168 90.010 217.19 0 82.074-32 159.181-90.010 217.242v0z" />
<glyph unicode="&#xe918;" glyph-name="video-clip-2" d="M926.476 896h-828.952c-53.882 0-97.524-44.366-97.524-99.032v-693.221c0-54.715 43.642-99.032 97.524-99.032h828.952c53.833 0 97.524 44.317 97.524 99.032v693.221c0 54.715-43.691 99.032-97.524 99.032v0zM341.333 796.968h97.524v-99.032h-97.524v99.032zM195.048 103.747h-97.524v99.032h97.524v-99.032zM195.048 697.937h-97.524v99.032h97.524v-99.032zM438.857 103.747h-97.524v99.032h97.524v-99.032zM682.667 103.747h-97.524v99.032h97.524v-99.032zM390.095 301.811v297.095l292.571-148.547-292.571-148.547zM682.667 697.937h-97.524v99.032h97.524v-99.032zM926.476 103.747h-97.524v99.032h97.524v-99.032zM926.476 697.937h-97.524v99.032h97.524v-99.032z" />
<glyph unicode="&#xe919;" glyph-name="video-clip-1" d="M930.909 866.769h-837.818c-51.433 0-93.091-41.705-93.091-93.091v-651.636c0-51.433 41.658-93.091 93.091-93.091h837.818c51.386 0 93.091 41.658 93.091 93.091v651.636c0 51.433-41.705 93.091-93.091 93.091v0zM512 122.042c-179.665 0-325.818 146.153-325.818 325.818 0 179.619 146.153 325.818 325.818 325.818s325.818-146.199 325.818-325.818c0-179.665-146.153-325.818-325.818-325.818v0zM512 680.588c-128.326 0-232.727-104.401-232.727-232.727s104.401-232.727 232.727-232.727c128.326 0 232.727 104.401 232.727 232.727s-104.401 232.727-232.727 232.727v0zM418.909 308.224v279.273l232.727-139.636-232.727-139.636z" />
<glyph unicode="&#xe91a;" glyph-name="wrench" d="M870.4 601.6c0 142.899-83.814 265.882-204.8 323.43v-272.23c0-84.838-68.762-153.6-153.6-153.6s-153.6 68.762-153.6 153.6v272.282c-120.986-57.6-204.8-180.531-204.8-323.482 0-121.754 60.826-229.12 153.6-293.888v-371.712h153.6v256h102.4v-256h153.6v371.712c92.774 64.768 153.6 172.134 153.6 293.888v0z" />
<glyph unicode="&#xe91b;" glyph-name="calculator" d="M930.909 960h-837.818c-51.386 0-93.091-41.798-93.091-93.091v-837.818c0-51.34 41.705-93.091 93.091-93.091h837.818c51.386 0 93.091 41.751 93.091 93.091v837.818c0 51.293-41.705 93.091-93.091 93.091v0zM930.816 494.545h-372.271v372.364h372.364l-0.093-372.364zM465.455 866.909v-372.364h-372.364v372.364h372.364zM93.091 401.455h372.364v-372.364h-372.364v372.364zM558.545 29.091v372.364h372.271l-0.047-372.364h-372.224zM605.091 727.273h279.273v-93.091h-279.273v93.091zM605.091 354.909h279.273v-93.091h-279.273v93.091zM605.091 168.727h279.273v-93.091h-279.273v93.091zM232.727 541.091h93.091v93.091h93.091v93.091h-93.091v93.091h-93.091v-93.091h-93.091v-93.091h93.091zM405.271 275.456l-65.815 65.815-60.183-60.183-60.183 60.183-65.815-65.815 60.183-60.183-60.183-60.183 65.815-65.815 60.183 60.183 60.183-60.183 65.815 65.815-60.183 60.183z" />
<glyph unicode="&#xe91c;" glyph-name="computer-screen" d="M721.971 89.6h-419.942l-78.029-62.413c-16.998-13.619-23.552-36.403-16.333-56.934s26.573-34.253 48.333-34.253h512c21.76 0 41.114 13.722 48.333 34.253 7.168 20.531 0.666 43.366-16.333 56.934l-78.029 62.413zM921.6 960c56.474 0 102.4-45.926 102.4-102.4v-614.4c0-56.474-45.926-102.4-102.4-102.4h-819.2c-56.474 0-102.4 45.926-102.4 102.4v614.4c0 56.474 45.926 102.4 102.4 102.4h819.2zM512 813.918c-145.33 0-263.518-118.188-263.518-263.518 0-145.374 118.188-263.518 263.518-263.518s263.518 118.144 263.518 263.518c0 145.33-118.188 263.518-263.518 263.518zM336.321 550.4c0 96.843 78.792 175.679 175.679 175.679 32.457 0 62.585-9.531 88.718-24.902l-239.494-239.494c-15.416 26.132-24.902 56.217-24.902 88.718zM512 374.721c-32.457 0-62.542 9.399-88.674 24.859l239.45 239.45c15.46-26.088 24.902-56.173 24.902-88.63 0-96.887-78.792-175.679-175.679-175.679z" />
<glyph unicode="&#xe91d;" glyph-name="contact-book" d="M921.6 960h-716.8c-56.576 0-102.4-45.824-102.4-102.4v-51.2h102.4v-51.2h-204.8v-102.4h102.4v-153.6h102.4v-51.2h-204.8v-102.4h102.4v-153.6h102.4v-51.2h-204.8v-102.4h102.4c0-56.525 45.824-102.4 102.4-102.4h716.8c56.525 0 102.4 45.875 102.4 102.4v819.2c0 56.576-45.824 102.4-102.4 102.4v0zM594.278 297.011c10.598 10.598 27.699 10.598 38.246 0l76.39-76.39c10.547-10.598 10.547-27.597 0-38.195l-76.39-76.39c-10.547-10.547-27.648-10.547-38.246 0l-95.437 95.437 0.512 0.512c-119.091 129.024-119.091 328.499 0 457.421l-0.512 0.512 95.437 95.539c10.598 10.547 27.699 10.547 38.246 0l76.39-76.39c10.547-10.598 10.547-27.699 0-38.195l-76.39-76.442c-10.547-10.547-27.648-10.547-38.246 0l-37.222 37.12c-87.347-97.126-87.347-244.531 0-341.811l37.222 37.274z" />
<glyph unicode="&#xe91e;" glyph-name="gauge" d="M1024 448c0 282.77-229.23 512-512 512s-512-229.23-512-512c0-282.77 229.23-512 512-512s512 229.23 512 512zM85.333 448c0 235.641 191.025 426.667 426.667 426.667s426.667-191.025 426.667-426.667c0-235.641-191.025-426.667-426.667-426.667s-426.667 191.025-426.667 426.667zM791.746 613.192c21.205-42.198 33.143-89.855 33.143-140.301 0-29.595-4.109-58.231-11.788-85.368l-58.329 31.446c3.839 17.362 5.863 35.405 5.863 53.921 0 32.395-6.195 63.343-17.466 91.724l48.577 48.577zM688.553 731.245c-50.252 34.407-111.052 54.534-176.553 54.534-172.804 0-312.889-140.085-312.889-312.889 0-29.443 4.067-57.937 11.67-84.95l58.303 31.686c-3.745 17.159-5.718 34.981-5.718 53.263 0 137.317 111.318 248.635 248.635 248.635 47.7 0 92.263-13.432 130.113-36.721l46.441 46.441zM593.778 448c0 45.165-36.613 81.778-81.778 81.778s-81.778-36.613-81.778-81.778c0-45.165 36.613-81.778 81.778-81.778s81.778 36.613 81.778 81.778zM515.556 448c0-1.964-1.592-3.556-3.556-3.556s-3.556 1.592-3.556 3.556c0 1.964 1.592 3.556 3.556 3.556s3.556-1.592 3.556-3.556zM551.111 174.222c0-21.6-17.511-39.111-39.111-39.111s-39.111 17.511-39.111 39.111c0 21.6 17.511 39.111 39.111 39.111s39.111-17.511 39.111-39.111zM394.667 252.444c0-21.6-17.511-39.111-39.111-39.111s-39.111 17.511-39.111 39.111c0 21.6 17.511 39.111 39.111 39.111s39.111-17.511 39.111-39.111zM707.556 252.444c0-21.6-17.511-39.111-39.111-39.111s-39.111 17.511-39.111 39.111c0 21.6 17.511 39.111 39.111 39.111s39.111-17.511 39.111-39.111zM777.588 653.248l30.17 30.17-60.34 60.34-315.313-315.313 60.34-60.34 30.17 30.17z" />
<glyph unicode="&#xe91f;" glyph-name="hotel-television" horiz-adv-x="1065" d="M513.615 764.652l106.338 132.923-61.519 49.191-126.779-158.444-126.779 158.444-61.519-49.191 106.338-132.923zM488.845 173.883c-10.192 24.56-16.657 51.052-18.69 78.769h-353.577v393.846h472.615v-158.658c39.27 24.663 85.72 38.929 135.483 38.929 35.803 0 69.891-7.385 100.825-20.713v140.442c0 43.323-35.446 78.769-78.769 78.769h-630.154c-43.323 0-78.769-35.446-78.769-78.769v-393.846c0-43.323 35.446-78.769 78.769-78.769h372.267zM707.348 590.572c-21.74 0-39.385 17.644-39.385 39.385s17.644 39.385 39.385 39.385c21.74 0 39.385-17.644 39.385-39.385s-17.644-39.385-39.385-39.385v0zM1037.807 19.495l-132.997 132.997c21.463 32.358 34.12 71.066 34.12 112.763 0 112.927-91.873 204.8-204.8 204.8s-204.8-91.873-204.8-204.8c0-112.927 91.873-204.8 204.8-204.8 41.697 0 80.404 12.657 112.763 34.12l132.997-132.997 57.917 57.917zM611.249 265.255c0 67.748 55.132 122.88 122.88 122.88s122.88-55.132 122.88-122.88c0-67.748-55.132-122.88-122.88-122.88s-122.88 55.132-122.88 122.88v0z" />
<glyph unicode="&#xe920;" glyph-name="mobile-phone-view" d="M384 277.376h-298.667v512h341.333v-358.741c21.76 36.267 50.773 67.541 85.333 91.648v352.427c0 47.061-38.272 85.333-85.333 85.333h-341.333c-47.061 0-85.333-38.229-85.333-85.333v-682.667c0-47.104 38.272-85.333 85.333-85.333h341.333c3.541 0 6.869 0.64 10.325 1.024-33.365 48.213-52.992 106.624-52.992 169.643v0zM998.997 21.376l-138.539 138.539c22.357 33.707 35.541 74.027 35.541 117.461 0 117.632-95.701 213.333-213.333 213.333s-213.333-95.701-213.333-213.333c0-117.632 95.701-213.333 213.333-213.333 43.435 0 83.755 13.184 117.461 35.541l138.539-138.539 60.331 60.331zM554.667 277.376c0 70.571 57.429 128 128 128s128-57.429 128-128c0-70.571-57.429-128-128-128s-128 57.429-128 128v0z" />
<glyph unicode="&#xe921;" glyph-name="network-lock" d="M597.333 362.411v256h159.403c3.627-13.867 6.4-28.16 8.32-42.667h86.101c-21.504 215.339-203.605 384-424.491 384-235.264 0-426.667-191.403-426.667-426.667 0-235.221 191.403-426.667 426.667-426.667 29.227 0 57.771 3.029 85.333 8.619v87.979c-27.349-7.083-55.851-11.264-85.333-11.264s-57.984 4.181-85.333 11.264v159.403h256zM597.333 828.245c51.584-29.952 94.549-72.917 124.501-124.501h-124.501v124.501zM341.333 863.147c27.349 7.083 55.851 11.221 85.333 11.221s57.984-4.139 85.333-11.221v-159.445h-170.667v159.445zM341.333 618.411h170.667v-170.667h-170.667v170.667zM256 237.909c-51.584 29.995-94.549 72.917-124.501 124.501h124.501v-124.501zM256 447.744h-159.403c-7.083 27.349-11.264 55.851-11.264 85.333 0 29.525 4.181 58.027 11.264 85.333h159.403v-170.667zM256 703.744h-124.501c29.952 51.584 72.917 94.549 124.501 124.501v-124.501zM981.333 320c0 94.080-76.587 170.667-170.667 170.667s-170.667-76.587-170.667-170.667c-23.595 0-42.667-19.072-42.667-42.667v-298.667c0-23.595 19.072-42.667 42.667-42.667h341.333c23.595 0 42.667 19.072 42.667 42.667v298.667c0 23.595-19.072 42.667-42.667 42.667v0zM810.667 405.333c47.104 0 85.333-38.229 85.333-85.333h-170.667c0 47.104 38.229 85.333 85.333 85.333v0zM938.667 21.333h-256v213.333h256v-213.333zM853.333 149.077c0-23.564-19.103-42.667-42.667-42.667s-42.667 19.103-42.667 42.667c0 23.564 19.103 42.667 42.667 42.667s42.667-19.103 42.667-42.667z" />
<glyph unicode="&#xe922;" glyph-name="network-view" d="M341.333 618.667h170.667v-85.504l85.333 0.085v85.419h159.403c7.083-27.349 11.264-55.851 11.264-85.333h85.333c0 235.264-191.403 426.667-426.667 426.667s-426.667-191.403-426.667-426.667c0-235.307 191.403-426.667 426.667-426.667v85.333c-29.483 0-57.984 4.139-85.333 11.221v159.445h85.333v85.333h-85.333v170.667zM597.333 828.459c51.584-29.952 94.549-72.917 124.501-124.459h-124.501v124.459zM341.333 863.403c27.349 7.083 55.851 11.264 85.333 11.264s57.984-4.181 85.333-11.264v-159.403h-170.667v159.403zM256 238.165c-51.584 29.909-94.549 72.917-124.501 124.501h124.501v-124.501zM256 448h-159.403c-7.083 27.349-11.264 55.808-11.264 85.333 0 29.483 4.181 57.984 11.264 85.333h159.403v-170.667zM256 704h-124.501c29.952 51.541 72.917 94.507 124.501 124.459v-124.459zM998.997 21.589l-138.539 138.539c22.357 33.707 35.541 74.027 35.541 117.461 0 117.589-95.701 213.333-213.333 213.333s-213.333-95.744-213.333-213.333c0-117.675 95.701-213.333 213.333-213.333 43.435 0 83.755 13.184 117.461 35.499l138.539-138.496 60.331 60.331zM554.667 277.589c0 70.571 57.429 128 128 128s128-57.429 128-128c0-70.571-57.429-128-128-128s-128 57.429-128 128v0z" />
<glyph unicode="&#xe923;" glyph-name="share-signal-tower" d="M569.685 385.493c16.896 15.573 27.648 37.717 27.648 62.507 0 47.104-38.229 85.333-85.333 85.333-47.147 0-85.333-38.229-85.333-85.333 0-24.747 10.752-46.933 27.648-62.507l-193.835-387.755c-6.571-13.227-5.931-28.928 1.877-41.515s21.504-20.224 36.309-20.224h426.667c14.805 0 28.501 7.68 36.309 20.267s8.448 28.288 1.877 41.515l-193.835 387.712zM570.965 192h-117.931l58.965 117.888 58.965-117.888zM367.701 21.333l42.667 85.333h203.264l42.667-85.333h-288.597zM874.027 809.984c-96.683 96.725-225.28 150.016-362.027 150.016s-265.344-53.291-362.027-150.016c-96.725-96.683-149.973-225.237-149.973-361.984s53.248-265.344 149.973-362.069l60.331 60.331c-80.597 80.555-124.971 187.776-124.971 301.739 0 114.005 44.373 221.099 124.971 301.653 80.597 80.597 187.733 125.013 301.696 125.013s221.099-44.373 301.696-125.013c80.597-80.597 124.971-187.691 124.971-301.653s-44.373-221.099-124.971-301.653l60.331-60.331c96.725 96.64 149.973 225.195 149.973 361.984s-53.248 265.301-149.973 361.984v0zM512 746.667c-164.651 0-298.667-133.973-298.667-298.667 0-38.016 7.253-75.349 21.504-110.933l79.232 31.829c-10.24 25.429-15.403 52.011-15.403 79.104 0 117.675 95.701 213.333 213.333 213.333s213.333-95.659 213.333-213.333c0-27.093-5.163-53.717-15.317-79.104l79.147-31.829c14.251 35.584 21.504 72.875 21.504 110.933 0 164.693-134.016 298.667-298.667 298.667v0z" />
<glyph unicode="&#xe924;" glyph-name="facebook" horiz-adv-x="555" d="M544.768 641.493h-182.101v81.28c0 38.229 25.344 47.147 43.179 47.147h127.488v168.192l-184.704 0.555c-167.552 0-199.296-125.355-199.296-205.653v-91.477h-128v-170.667h128v-512h213.333v512h164.309l17.792 170.624z" />
<glyph unicode="&#xe925;" glyph-name="linkedin" d="M257.257-17.455h-232.727v605.091h232.727v-605.091zM140.474 680.727h-1.396c-70.33 0-115.805 55.017-115.805 115.479 0 61.859 46.918 112.268 118.551 112.268 71.727 0 115.805-52.038 117.248-113.897-0.047-60.463-45.521-113.85-118.598-113.85v0zM676.166 401.455c-51.433 0-93.091-41.705-93.091-93.091v-325.818h-232.727c0 0 2.746 558.545 0 605.091h232.727v-69.12c0 0 72.052 67.165 183.296 67.165 137.868 0 235.613-99.793 235.613-293.423v-309.713h-232.727v325.818c0 51.386-41.658 93.091-93.091 93.091v0z" />
<glyph unicode="&#xe926;" glyph-name="google-plus" d="M679.211 512h-359.211v-128h225.152c-10.624-75.819-77.568-149.333-193.152-149.333-123.52 0-224 100.48-224 224s100.48 224 224 224c54.101 0 106.325-19.541 147.072-55.040l14.421-12.587 93.952 86.869-16.981 15.659c-65.152 60.032-149.845 93.099-238.464 93.099-194.091 0-352-157.909-352-352s157.909-352 352-352c243.797 0 330.667 181.845 330.667 352 0 11.477-0.555 22.827-1.621 34.005l-1.835 19.328zM938.667 512v85.333h-128v-85.333h-85.333v-128h85.333v-85.333h128v85.333h85.333v128z" />
<glyph unicode="&#xe927;" glyph-name="twitter" d="M999.246 744.782c-36.241-16.161-66.783-16.696-99.15-0.712 41.761 25.021 43.676 42.607 58.769 89.889-39.090-23.196-82.41-40.070-128.49-49.152-36.864 39.268-89.444 63.889-147.634 63.889-111.75 0-202.307-90.646-202.307-202.307 0-15.85 1.781-31.299 5.209-46.125-168.114 8.415-317.217 88.954-416.991 211.389-17.408-29.874-27.381-64.646-27.381-101.732 0-70.211 35.751-132.096 89.978-168.381-33.169 1.069-64.334 10.151-91.581 25.288-0.045-0.846-0.045-1.647-0.045-2.538 0-98.037 69.721-179.779 162.326-198.389-29.651-8.058-60.906-9.305-91.403-3.517 25.778-80.317 100.486-138.819 188.995-140.466-86.595-67.851-193.937-96.122-299.542-83.745 89.578-57.389 195.851-90.869 310.138-90.869 372.113 0 575.577 308.269 575.577 575.622 0 8.815-0.134 17.497-0.534 26.179 39.491 28.494 86.951 55.073 114.065 95.677v0z" />
<glyph unicode="&#xe928;" glyph-name="youtube" d="M855.979 810.667h-687.957c-92.629 0-168.021-75.435-168.021-168.064v-389.163c0-92.672 75.392-168.107 168.021-168.107h688c92.587 0 167.979 75.435 167.979 168.107v389.163c0 92.629-75.392 168.064-168.021 168.064v0zM705.621 446.677l-288.811-184.789c-3.499-2.219-7.509-3.371-11.477-3.371-3.541 0-7.040 0.896-10.24 2.645-6.827 3.712-11.093 10.923-11.093 18.688v369.579c0 7.851 4.267 15.019 11.093 18.773 6.869 3.712 15.189 3.413 21.76-0.768l288.811-184.832c6.144-3.925 9.856-10.667 9.856-17.963-0.043-7.296-3.755-14.037-9.899-17.963v0z" />
<glyph unicode="&#xe929;" glyph-name="share-rss-feed" d="M323.368 97.63c0-89.296-72.388-161.684-161.684-161.684s-161.684 72.388-161.684 161.684c0 89.296 72.388 161.684 161.684 161.684s161.684-72.388 161.684-161.684zM53.895 636.632v-107.789c297.176 0 538.947-241.664 538.947-538.947h107.789c0 356.621-290.115 646.737-646.737 646.737v0zM53.895 960v-107.789c475.459 0 862.316-386.856 862.316-862.316h107.789c0 534.905-435.146 970.105-970.105 970.105v0z" />
<glyph unicode="юдкюдк" glyph-name="share-rss-feed" d="M323.368 97.63c0-89.296-72.388-161.684-161.684-161.684s-161.684 72.388-161.684 161.684c0 89.296 72.388 161.684 161.684 161.684s161.684-72.388 161.684-161.684zM53.895 636.632v-107.789c297.176 0 538.947-241.664 538.947-538.947h107.789c0 356.621-290.115 646.737-646.737 646.737v0zM53.895 960v-107.789c475.459 0 862.316-386.856 862.316-862.316h107.789c0 534.905-435.146 970.105-970.105 970.105v0z" />
<glyph unicode="youtube" glyph-name="youtube" d="M855.979 810.667h-687.957c-92.629 0-168.021-75.435-168.021-168.064v-389.163c0-92.672 75.392-168.107 168.021-168.107h688c92.587 0 167.979 75.435 167.979 168.107v389.163c0 92.629-75.392 168.064-168.021 168.064v0zM705.621 446.677l-288.811-184.789c-3.499-2.219-7.509-3.371-11.477-3.371-3.541 0-7.040 0.896-10.24 2.645-6.827 3.712-11.093 10.923-11.093 18.688v369.579c0 7.851 4.267 15.019 11.093 18.773 6.869 3.712 15.189 3.413 21.76-0.768l288.811-184.832c6.144-3.925 9.856-10.667 9.856-17.963-0.043-7.296-3.755-14.037-9.899-17.963v0z" />
<glyph unicode="wrench" glyph-name="wrench" d="M870.4 601.6c0 142.899-83.814 265.882-204.8 323.43v-272.23c0-84.838-68.762-153.6-153.6-153.6s-153.6 68.762-153.6 153.6v272.282c-120.986-57.6-204.8-180.531-204.8-323.482 0-121.754 60.826-229.12 153.6-293.888v-371.712h153.6v256h102.4v-256h153.6v371.712c92.774 64.768 153.6 172.134 153.6 293.888v0z" />
<glyph unicode="vote_flag" glyph-name="vote-flag" horiz-adv-x="853" d="M791.836 708.71l-696.889 247.467c-15.232 5.444-32.206 3.168-45.397-6.137-13.241-9.305-21.106-24.351-21.106-40.436v-940.373h99.556v410.547l663.836 235.737c19.812 7.028 33.052 25.687 33.052 46.573s-13.241 39.595-33.052 46.623v0z" />
<glyph unicode="video_clip_2" glyph-name="video-clip-2" d="M926.476 896h-828.952c-53.882 0-97.524-44.366-97.524-99.032v-693.221c0-54.715 43.642-99.032 97.524-99.032h828.952c53.833 0 97.524 44.317 97.524 99.032v693.221c0 54.715-43.691 99.032-97.524 99.032v0zM341.333 796.968h97.524v-99.032h-97.524v99.032zM195.048 103.747h-97.524v99.032h97.524v-99.032zM195.048 697.937h-97.524v99.032h97.524v-99.032zM438.857 103.747h-97.524v99.032h97.524v-99.032zM682.667 103.747h-97.524v99.032h97.524v-99.032zM390.095 301.811v297.095l292.571-148.547-292.571-148.547zM682.667 697.937h-97.524v99.032h97.524v-99.032zM926.476 103.747h-97.524v99.032h97.524v-99.032zM926.476 697.937h-97.524v99.032h97.524v-99.032z" />
<glyph unicode="video_clip_1" glyph-name="video-clip-1" d="M930.909 866.769h-837.818c-51.433 0-93.091-41.705-93.091-93.091v-651.636c0-51.433 41.658-93.091 93.091-93.091h837.818c51.386 0 93.091 41.658 93.091 93.091v651.636c0 51.433-41.705 93.091-93.091 93.091v0zM512 122.042c-179.665 0-325.818 146.153-325.818 325.818 0 179.619 146.153 325.818 325.818 325.818s325.818-146.199 325.818-325.818c0-179.665-146.153-325.818-325.818-325.818v0zM512 680.588c-128.326 0-232.727-104.401-232.727-232.727s104.401-232.727 232.727-232.727c128.326 0 232.727 104.401 232.727 232.727s-104.401 232.727-232.727 232.727v0zM418.909 308.224v279.273l232.727-139.636-232.727-139.636z" />
<glyph unicode="twitter" glyph-name="twitter" d="M999.246 744.782c-36.241-16.161-66.783-16.696-99.15-0.712 41.761 25.021 43.676 42.607 58.769 89.889-39.090-23.196-82.41-40.070-128.49-49.152-36.864 39.268-89.444 63.889-147.634 63.889-111.75 0-202.307-90.646-202.307-202.307 0-15.85 1.781-31.299 5.209-46.125-168.114 8.415-317.217 88.954-416.991 211.389-17.408-29.874-27.381-64.646-27.381-101.732 0-70.211 35.751-132.096 89.978-168.381-33.169 1.069-64.334 10.151-91.581 25.288-0.045-0.846-0.045-1.647-0.045-2.538 0-98.037 69.721-179.779 162.326-198.389-29.651-8.058-60.906-9.305-91.403-3.517 25.778-80.317 100.486-138.819 188.995-140.466-86.595-67.851-193.937-96.122-299.542-83.745 89.578-57.389 195.851-90.869 310.138-90.869 372.113 0 575.577 308.269 575.577 575.622 0 8.815-0.134 17.497-0.534 26.179 39.491 28.494 86.951 55.073 114.065 95.677v0z" />
<glyph unicode="share_signal_tower" glyph-name="share-signal-tower" d="M569.685 385.493c16.896 15.573 27.648 37.717 27.648 62.507 0 47.104-38.229 85.333-85.333 85.333-47.147 0-85.333-38.229-85.333-85.333 0-24.747 10.752-46.933 27.648-62.507l-193.835-387.755c-6.571-13.227-5.931-28.928 1.877-41.515s21.504-20.224 36.309-20.224h426.667c14.805 0 28.501 7.68 36.309 20.267s8.448 28.288 1.877 41.515l-193.835 387.712zM570.965 192h-117.931l58.965 117.888 58.965-117.888zM367.701 21.333l42.667 85.333h203.264l42.667-85.333h-288.597zM874.027 809.984c-96.683 96.725-225.28 150.016-362.027 150.016s-265.344-53.291-362.027-150.016c-96.725-96.683-149.973-225.237-149.973-361.984s53.248-265.344 149.973-362.069l60.331 60.331c-80.597 80.555-124.971 187.776-124.971 301.739 0 114.005 44.373 221.099 124.971 301.653 80.597 80.597 187.733 125.013 301.696 125.013s221.099-44.373 301.696-125.013c80.597-80.597 124.971-187.691 124.971-301.653s-44.373-221.099-124.971-301.653l60.331-60.331c96.725 96.64 149.973 225.195 149.973 361.984s-53.248 265.301-149.973 361.984v0zM512 746.667c-164.651 0-298.667-133.973-298.667-298.667 0-38.016 7.253-75.349 21.504-110.933l79.232 31.829c-10.24 25.429-15.403 52.011-15.403 79.104 0 117.675 95.701 213.333 213.333 213.333s213.333-95.659 213.333-213.333c0-27.093-5.163-53.717-15.317-79.104l79.147-31.829c14.251 35.584 21.504 72.875 21.504 110.933 0 164.693-134.016 298.667-298.667 298.667v0z" />
<glyph unicode="share_signal_antenna" glyph-name="share-signal-antenna" d="M512 601.6c-56.627 0-102.4-45.926-102.4-102.4 0-37.734 20.685-70.4 51.2-88.218v-423.782h102.4v423.782c30.515 17.818 51.2 50.483 51.2 88.218 0 56.474-45.875 102.4-102.4 102.4v0zM222.362 788.89l-72.397 72.397c-199.629-199.629-199.629-524.493 0-724.122l72.397 72.397c-159.693 159.693-159.693 419.584 0 579.328v0zM873.984 861.286l-72.397-72.397c77.414-77.414 120.013-180.275 120.013-289.69s-42.598-212.224-120.013-289.587l72.397-72.397c96.717 96.666 150.016 225.229 150.016 361.984s-53.299 265.37-150.016 362.086v0zM294.81 716.442c-58.010-58.061-90.010-135.168-90.010-217.242 0-82.022 32-159.181 90.010-217.19l72.397 72.448c-38.707 38.605-60.006 90.010-60.006 144.742 0 54.682 21.299 106.138 60.006 144.794l-72.397 72.448zM729.19 716.442l-72.397-72.448c38.707-38.656 60.006-90.112 60.006-144.794s-21.299-106.086-60.006-144.742l72.397-72.448c58.010 57.958 90.010 135.168 90.010 217.19 0 82.074-32 159.181-90.010 217.242v0z" />
<glyph unicode="share_rss_feed" glyph-name="share-rss-feed" d="M323.368 97.63c0-89.296-72.388-161.684-161.684-161.684s-161.684 72.388-161.684 161.684c0 89.296 72.388 161.684 161.684 161.684s161.684-72.388 161.684-161.684zM53.895 636.632v-107.789c297.176 0 538.947-241.664 538.947-538.947h107.789c0 356.621-290.115 646.737-646.737 646.737v0zM53.895 960v-107.789c475.459 0 862.316-386.856 862.316-862.316h107.789c0 534.905-435.146 970.105-970.105 970.105v0z" />
<glyph unicode="search" glyph-name="search" d="M996.639 94.98l-184.258 184.258c45.843 70.743 70.65 153.075 70.65 239.27-0.047 243.97-197.522 441.493-441.539 441.493-243.97 0-441.493-197.476-441.493-441.493 0-243.924 197.476-441.493 441.493-441.493 86.241 0 168.573 24.807 239.223 70.603l184.211-184.211c36.489-36.582 95.364-36.489 131.666-0.047 36.302 36.302 36.302 95.364 0.047 131.619v0zM93.083 518.507c0 192.542 155.821 348.363 348.41 348.363 192.449 0 348.41-155.774 348.41-348.363 0-93.036-36.256-180.534-102.112-246.298-65.81-65.856-153.261-102.065-246.344-102.065-192.403-0.047-348.363 155.821-348.363 348.363v0z" />
<glyph unicode="radio" glyph-name="radio" d="M372.582 678.246l268.186 160.973-52.736 87.757-414.464-248.73zM921.6 627.046h-833.331l-2.918-1.741c-48.23-8.192-85.35-50.227-85.35-100.659v-460.8c0-56.269 46.080-102.4 102.4-102.4h819.2c56.32 0 102.4 46.131 102.4 102.4v460.8c0 56.32-46.080 102.4-102.4 102.4v0zM102.4 473.446h716.8v-102.4h-716.8v102.4zM512 166.246h-409.6v102.4h409.6v-102.4zM819.2 63.846c-56.525 0-102.4 45.875-102.4 102.4s45.875 102.4 102.4 102.4c56.525 0 102.4-45.875 102.4-102.4s-45.875-102.4-102.4-102.4v0z" />
<glyph unicode="projector_screen-graph-pie" glyph-name="projector-screen-graph-pie" d="M1009.778 731.022v149.333c0 27.477-22.251 49.778-49.778 49.778h-896c-27.477 0-49.778-22.3-49.778-49.778v-149.333c0-27.477 22.3-49.778 49.778-49.778v-497.778h-49.778v-99.556h448v-99.556h99.556v99.556h448v99.556h-49.778v497.778c27.527 0 49.778 22.3 49.778 49.778v0zM312.889 283.022c-82.482 0-149.333 66.852-149.333 149.333 0 82.432 66.852 149.333 149.333 149.333v-149.333h149.333c0-82.482-66.901-149.333-149.333-149.333v0zM362.667 482.133v149.333c82.432 0 149.333-66.901 149.333-149.333h-149.333zM860.444 233.244h-298.667v99.556h298.667v-99.556zM860.444 382.578h-199.111v99.556h199.111v-99.556zM860.444 531.911h-149.333v99.556h149.333v-99.556zM910.222 780.8h-796.444v49.778h796.444v-49.778z" />
<glyph unicode="phone_pending" glyph-name="phone-pending" d="M588.8 577.076c0-42.772-34.385-77.445-76.8-77.445s-76.8 34.673-76.8 77.445c0 42.772 34.385 77.445 76.8 77.445s76.8-34.673 76.8-77.445zM793.6 577.076c0-42.772-34.385-77.445-76.8-77.445s-76.8 34.673-76.8 77.445c0 42.772 34.385 77.445 76.8 77.445s76.8-34.673 76.8-77.445zM998.4 577.076c0-42.772-34.385-77.445-76.8-77.445s-76.8 34.673-76.8 77.445c0 42.772 34.385 77.445 76.8 77.445s76.8-34.673 76.8-77.445zM563.2 9.143h256c28.314 0 51.2 23.079 51.2 51.63v206.521c0 28.552-22.886 51.63-51.2 51.63h-204.8c-28.314 0-51.2-23.079-51.2-51.63v-51.63c-204.8 0-355.174 158.092-358.4 361.412h51.2c28.314 0 51.2 23.079 51.2 51.63v206.521c0 28.552-22.886 51.63-51.2 51.63h-204.8c-28.262 0-51.2-23.079-51.2-51.63v-258.151c0-313.654 252.16-567.933 563.2-567.933v0z" />
<glyph unicode="network_view" glyph-name="network-view" d="M341.333 618.667h170.667v-85.504l85.333 0.085v85.419h159.403c7.083-27.349 11.264-55.851 11.264-85.333h85.333c0 235.264-191.403 426.667-426.667 426.667s-426.667-191.403-426.667-426.667c0-235.307 191.403-426.667 426.667-426.667v85.333c-29.483 0-57.984 4.139-85.333 11.221v159.445h85.333v85.333h-85.333v170.667zM597.333 828.459c51.584-29.952 94.549-72.917 124.501-124.459h-124.501v124.459zM341.333 863.403c27.349 7.083 55.851 11.264 85.333 11.264s57.984-4.181 85.333-11.264v-159.403h-170.667v159.403zM256 238.165c-51.584 29.909-94.549 72.917-124.501 124.501h124.501v-124.501zM256 448h-159.403c-7.083 27.349-11.264 55.808-11.264 85.333 0 29.483 4.181 57.984 11.264 85.333h159.403v-170.667zM256 704h-124.501c29.952 51.541 72.917 94.507 124.501 124.459v-124.459zM998.997 21.589l-138.539 138.539c22.357 33.707 35.541 74.027 35.541 117.461 0 117.589-95.701 213.333-213.333 213.333s-213.333-95.744-213.333-213.333c0-117.675 95.701-213.333 213.333-213.333 43.435 0 83.755 13.184 117.461 35.499l138.539-138.496 60.331 60.331zM554.667 277.589c0 70.571 57.429 128 128 128s128-57.429 128-128c0-70.571-57.429-128-128-128s-128 57.429-128 128v0z" />
<glyph unicode="network_lock" glyph-name="network-lock" d="M597.333 362.411v256h159.403c3.627-13.867 6.4-28.16 8.32-42.667h86.101c-21.504 215.339-203.605 384-424.491 384-235.264 0-426.667-191.403-426.667-426.667 0-235.221 191.403-426.667 426.667-426.667 29.227 0 57.771 3.029 85.333 8.619v87.979c-27.349-7.083-55.851-11.264-85.333-11.264s-57.984 4.181-85.333 11.264v159.403h256zM597.333 828.245c51.584-29.952 94.549-72.917 124.501-124.501h-124.501v124.501zM341.333 863.147c27.349 7.083 55.851 11.221 85.333 11.221s57.984-4.139 85.333-11.221v-159.445h-170.667v159.445zM341.333 618.411h170.667v-170.667h-170.667v170.667zM256 237.909c-51.584 29.995-94.549 72.917-124.501 124.501h124.501v-124.501zM256 447.744h-159.403c-7.083 27.349-11.264 55.851-11.264 85.333 0 29.525 4.181 58.027 11.264 85.333h159.403v-170.667zM256 703.744h-124.501c29.952 51.584 72.917 94.549 124.501 124.501v-124.501zM981.333 320c0 94.080-76.587 170.667-170.667 170.667s-170.667-76.587-170.667-170.667c-23.595 0-42.667-19.072-42.667-42.667v-298.667c0-23.595 19.072-42.667 42.667-42.667h341.333c23.595 0 42.667 19.072 42.667 42.667v298.667c0 23.595-19.072 42.667-42.667 42.667v0zM810.667 405.333c47.104 0 85.333-38.229 85.333-85.333h-170.667c0 47.104 38.229 85.333 85.333 85.333v0zM938.667 21.333h-256v213.333h256v-213.333zM853.333 149.077c0-23.564-19.103-42.667-42.667-42.667s-42.667 19.103-42.667 42.667c0 23.564 19.103 42.667 42.667 42.667s42.667-19.103 42.667-42.667z" />
<glyph unicode="network_global" glyph-name="network-global" d="M512 972.8c-282.325 0-512-229.76-512-512 0-282.325 229.675-512 512-512s512 229.675 512 512c0 282.24-229.675 512-512 512v0zM936.917 426.069l-85.845 14.293c-4.096 23.083-14.464 43.776-29.141 60.843l77.867 136.32c24.747-53.931 38.869-113.621 38.869-176.725 0-11.733-0.853-23.253-1.749-34.731v0zM849.323 721.067l-101.291-177.237c-7.381 1.323-14.933 2.304-22.699 2.304-19.755 0-38.187-4.821-54.869-12.843l-85.931 85.931c7.979 16.683 12.8 35.157 12.8 54.912 0 19.712-4.821 38.144-12.8 54.827l114.645 114.688c59.008-29.013 110.293-71.040 150.144-122.581v0zM610.432 875.563l-86.229-86.229c-16.683 7.979-35.115 12.8-54.869 12.8-43.008 0-80.853-21.419-104.021-53.931l-129.664 37.035c74.539 63.531 170.923 102.229 276.352 102.229 33.92 0 66.731-4.437 98.432-11.904v0zM170.283 715.179l171.861-49.067c4.224-66.901 59.264-119.979 127.189-119.979 19.755 0 38.187 4.821 54.869 12.757l85.931-85.931c-7.637-16-12.203-33.664-12.544-52.437l-155.776-51.968c-23.467 29.952-59.52 49.579-100.48 49.579-16.256 0-31.616-3.328-45.909-8.875l-177.664 207.275-3.755-3.157c14.165 36.693 33.152 70.784 56.277 101.803v0zM85.333 460.8c0 19.499 1.749 38.528 4.352 57.387l141.099-164.608c-10.795-18.816-17.451-40.277-17.451-63.445 0-38.315 17.109-72.277 43.733-95.701l-22.741-56.917c-91.051 78.251-148.992 194.048-148.992 323.285v0zM306.176 87.296l30.123 75.349c1.707-0.128 3.285-0.512 5.035-0.512 69.888 0 126.464 56.021 127.744 125.568l155.776 51.925c11.947-15.232 27.136-27.691 44.8-36.267l-27.648-248.789c-41.003-13.184-84.651-20.437-130.005-20.437-74.624 0-144.768 19.328-205.824 53.163v0zM732.501 96.171l21.931 197.547c35.584 8.32 65.067 31.488 82.347 62.549l84.779-14.165c-30.123-103.723-98.645-191.019-189.056-245.931v0z" />
<glyph unicode="network_computer" glyph-name="network-computer" d="M938.667 618.581h-597.333c-47.061 0-85.333-38.272-85.333-85.333v-384c0-47.019 38.272-85.333 85.333-85.333h256v-42.667h-128v-85.333h341.333v85.333h-128v42.667h256c47.104 0 85.333 38.315 85.333 85.333v384c0 47.061-38.229 85.333-85.333 85.333v0zM938.667 533.248l-0.085-256h-597.248v256h597.333zM85.333 533.248h127.957v-85.333h-127.957v85.333zM85.333 874.581h341.333v-213.333h85.333v256c0 23.595-19.072 42.667-42.667 42.667h-426.667c-23.595 0-42.667-19.072-42.667-42.667v-298.667c0-23.552 19.072-42.667 42.667-42.667h170.624v85.333h-127.957v213.333z" />
<glyph unicode="navigation_drawer" glyph-name="navigation-drawer" d="M398.222 846.222h625.778v-113.778h-625.778v113.778zM398.222 618.78h417.185v-113.778h-417.185v113.778zM398.222 391.168h208.593v-113.778h-208.593v113.778zM227.556 903.111h-113.778v-739.556h-113.778l170.667-170.667 170.667 170.667h-113.778z" />
<glyph unicode="nature_leaf" glyph-name="nature-leaf" horiz-adv-x="896" d="M168.519 653.696c-113.244-134.002-107.42-328.981 5.824-456.512l-144.206-170.539 76.011-64.263 144.455 170.887c55.054-34.347 118.62-53.561 184.078-53.561 103.040 0 200.206 45.099 266.56 123.748 127.083 150.18 162.027 551.637 173.426 748.011-161.031-43.605-595.74-167.054-706.148-297.771v0zM274.098 238.101c-104.981 88.754-118.222 246.35-29.518 351.381 62.222 73.621 326.642 170.588 518.784 227.684l-489.266-579.065z" />
<glyph unicode="mobile_phone_view" glyph-name="mobile-phone-view" d="M384 277.376h-298.667v512h341.333v-358.741c21.76 36.267 50.773 67.541 85.333 91.648v352.427c0 47.061-38.272 85.333-85.333 85.333h-341.333c-47.061 0-85.333-38.229-85.333-85.333v-682.667c0-47.104 38.272-85.333 85.333-85.333h341.333c3.541 0 6.869 0.64 10.325 1.024-33.365 48.213-52.992 106.624-52.992 169.643v0zM998.997 21.376l-138.539 138.539c22.357 33.707 35.541 74.027 35.541 117.461 0 117.632-95.701 213.333-213.333 213.333s-213.333-95.701-213.333-213.333c0-117.632 95.701-213.333 213.333-213.333 43.435 0 83.755 13.184 117.461 35.541l138.539-138.539 60.331 60.331zM554.667 277.376c0 70.571 57.429 128 128 128s128-57.429 128-128c0-70.571-57.429-128-128-128s-128 57.429-128 128v0z" />
<glyph unicode="mail" glyph-name="mail" d="M512 491.196l459.008 284.826c-14.746 8.192-31.386 13.312-49.408 13.312h-819.2c-18.022 0-34.714-5.12-49.408-13.312l459.008-284.826zM538.982 387.465c-8.243-5.12-17.613-7.731-26.982-7.731s-18.739 2.611-26.982 7.68l-484.864 300.902c0-0.461-0.154-0.922-0.154-1.331v-460.8c0-56.422 45.926-102.4 102.4-102.4h819.2c56.474 0 102.4 45.978 102.4 102.4v460.8c0 0.461-0.154 0.922-0.154 1.382l-484.864-300.902z" />
<glyph unicode="login" glyph-name="login" d="M548.198 689.050l-72.397-72.499 117.606-117.35h-593.408v-102.4h592.998l-117.248-117.453 72.499-72.346 240.947 241.459zM512 960c-228.813 0-422.963-150.989-488.397-358.4h108.902c60.979 149.862 207.974 256 379.494 256 225.843 0 409.6-183.757 409.6-409.6s-183.757-409.6-409.6-409.6c-171.52 0-318.515 106.086-379.443 256h-108.954c65.382-207.462 259.533-358.4 488.397-358.4 282.317 0 512 229.683 512 512s-229.683 512-512 512v0z" />
<glyph unicode="location_pin" glyph-name="location-pin" horiz-adv-x="725" d="M362.667 960c-200.296 0-362.667-160.461-362.667-358.4 0-256 362.667-665.6 362.667-665.6s362.667 409.6 362.667 665.6c0 197.939-162.371 358.4-362.667 358.4v0zM362.667 473.6c-71.497 0-129.524 57.293-129.524 128s58.027 128 129.524 128c71.549 0 129.524-57.293 129.524-128s-57.975-128-129.524-128v0z" />
<glyph unicode="linkedin" glyph-name="linkedin" d="M257.257-17.455h-232.727v605.091h232.727v-605.091zM140.474 680.727h-1.396c-70.33 0-115.805 55.017-115.805 115.479 0 61.859 46.918 112.268 118.551 112.268 71.727 0 115.805-52.038 117.248-113.897-0.047-60.463-45.521-113.85-118.598-113.85v0zM676.166 401.455c-51.433 0-93.091-41.705-93.091-93.091v-325.818h-232.727c0 0 2.746 558.545 0 605.091h232.727v-69.12c0 0 72.052 67.165 183.296 67.165 137.868 0 235.613-99.793 235.613-293.423v-309.713h-232.727v325.818c0 51.386-41.658 93.091-93.091 93.091v0z" />
<glyph unicode="hotel_television" glyph-name="hotel-television" horiz-adv-x="1065" d="M513.615 764.652l106.338 132.923-61.519 49.191-126.779-158.444-126.779 158.444-61.519-49.191 106.338-132.923zM488.845 173.883c-10.192 24.56-16.657 51.052-18.69 78.769h-353.577v393.846h472.615v-158.658c39.27 24.663 85.72 38.929 135.483 38.929 35.803 0 69.891-7.385 100.825-20.713v140.442c0 43.323-35.446 78.769-78.769 78.769h-630.154c-43.323 0-78.769-35.446-78.769-78.769v-393.846c0-43.323 35.446-78.769 78.769-78.769h372.267zM707.348 590.572c-21.74 0-39.385 17.644-39.385 39.385s17.644 39.385 39.385 39.385c21.74 0 39.385-17.644 39.385-39.385s-17.644-39.385-39.385-39.385v0zM1037.807 19.495l-132.997 132.997c21.463 32.358 34.12 71.066 34.12 112.763 0 112.927-91.873 204.8-204.8 204.8s-204.8-91.873-204.8-204.8c0-112.927 91.873-204.8 204.8-204.8 41.697 0 80.404 12.657 112.763 34.12l132.997-132.997 57.917 57.917zM611.249 265.255c0 67.748 55.132 122.88 122.88 122.88s122.88-55.132 122.88-122.88c0-67.748-55.132-122.88-122.88-122.88s-122.88 55.132-122.88 122.88v0z" />
<glyph unicode="google_plus" glyph-name="google-plus" d="M679.211 512h-359.211v-128h225.152c-10.624-75.819-77.568-149.333-193.152-149.333-123.52 0-224 100.48-224 224s100.48 224 224 224c54.101 0 106.325-19.541 147.072-55.040l14.421-12.587 93.952 86.869-16.981 15.659c-65.152 60.032-149.845 93.099-238.464 93.099-194.091 0-352-157.909-352-352s157.909-352 352-352c243.797 0 330.667 181.845 330.667 352 0 11.477-0.555 22.827-1.621 34.005l-1.835 19.328zM938.667 512v85.333h-128v-85.333h-85.333v-128h85.333v-85.333h128v85.333h85.333v128z" />
<glyph unicode="gauge" glyph-name="gauge" d="M1024 448c0 282.77-229.23 512-512 512s-512-229.23-512-512c0-282.77 229.23-512 512-512s512 229.23 512 512zM85.333 448c0 235.641 191.025 426.667 426.667 426.667s426.667-191.025 426.667-426.667c0-235.641-191.025-426.667-426.667-426.667s-426.667 191.025-426.667 426.667zM791.746 613.192c21.205-42.198 33.143-89.855 33.143-140.301 0-29.595-4.109-58.231-11.788-85.368l-58.329 31.446c3.839 17.362 5.863 35.405 5.863 53.921 0 32.395-6.195 63.343-17.466 91.724l48.577 48.577zM688.553 731.245c-50.252 34.407-111.052 54.534-176.553 54.534-172.804 0-312.889-140.085-312.889-312.889 0-29.443 4.067-57.937 11.67-84.95l58.303 31.686c-3.745 17.159-5.718 34.981-5.718 53.263 0 137.317 111.318 248.635 248.635 248.635 47.7 0 92.263-13.432 130.113-36.721l46.441 46.441zM593.778 448c0 45.165-36.613 81.778-81.778 81.778s-81.778-36.613-81.778-81.778c0-45.165 36.613-81.778 81.778-81.778s81.778 36.613 81.778 81.778zM515.556 448c0-1.964-1.592-3.556-3.556-3.556s-3.556 1.592-3.556 3.556c0 1.964 1.592 3.556 3.556 3.556s3.556-1.592 3.556-3.556zM551.111 174.222c0-21.6-17.511-39.111-39.111-39.111s-39.111 17.511-39.111 39.111c0 21.6 17.511 39.111 39.111 39.111s39.111-17.511 39.111-39.111zM394.667 252.444c0-21.6-17.511-39.111-39.111-39.111s-39.111 17.511-39.111 39.111c0 21.6 17.511 39.111 39.111 39.111s39.111-17.511 39.111-39.111zM707.556 252.444c0-21.6-17.511-39.111-39.111-39.111s-39.111 17.511-39.111 39.111c0 21.6 17.511 39.111 39.111 39.111s39.111-17.511 39.111-39.111zM777.588 653.248l30.17 30.17-60.34 60.34-315.313-315.313 60.34-60.34 30.17 30.17z" />
<glyph unicode="file_view" glyph-name="file-view" d="M384 277.333c0 164.949 133.717 298.667 298.667 298.667 29.653 0 58.283-4.48 85.333-12.544v200.875l-195.669 195.669h-486.997c-47.061 0-85.333-38.315-85.333-85.333v-768c0-47.061 38.272-85.333 85.333-85.333h444.075c-86.997 52.181-145.408 147.157-145.408 256v0zM512 917.333l213.333-213.333h-213.333v213.333zM860.459 159.872c22.357 33.707 35.541 74.027 35.541 117.461 0 117.632-95.701 213.333-213.333 213.333s-213.333-95.701-213.333-213.333c0-117.632 95.701-213.333 213.333-213.333 43.435 0 83.755 13.184 117.461 35.541l138.539-138.539 60.331 60.331-138.539 138.539zM682.667 149.333c-70.571 0-128 57.429-128 128s57.429 128 128 128c70.571 0 128-57.429 128-128s-57.429-128-128-128v0z" />
<glyph unicode="file_office_rtf" glyph-name="file-office-rtf" horiz-adv-x="853" d="M184 286.222h-34.667v-69.333h34.667c19.136 0 34.667 15.531 34.667 34.667s-15.531 34.667-34.667 34.667v0zM630.692 956.444h-527.58c-50.983 0-92.444-41.508-92.444-92.444v-832c0-50.983 41.461-92.444 92.444-92.444h647.111c50.983 0 92.444 41.461 92.444 92.444v712.469l-211.975 211.975zM288 78.222h-80.288l-40.444 69.333h-17.934v-69.333h-69.333v277.333h104c57.362 0 104-46.638 104-104 0-37.394-19.968-69.934-49.643-88.284l49.643-85.049zM542.222 286.222h-69.333v-208h-69.333v208h-69.333v69.333h208v-69.333zM773.333 286.222h-138.667v-34.667h104v-69.333h-104v-104h-69.333v208c0 38.226 31.108 69.333 69.333 69.333h138.667v-69.333zM565.333 679.111v231.111l231.111-231.111h-231.111z" />
<glyph unicode="file_office_pdf" glyph-name="file-office-pdf" horiz-adv-x="853" d="M403.556 286.222v-138.667c38.226 0 69.333 31.108 69.333 69.333s-31.108 69.333-69.333 69.333v0zM184 286.222h-34.667v-69.333h34.667c19.136 0 34.667 15.531 34.667 34.667s-15.531 34.667-34.667 34.667v0zM630.692 956.444h-527.58c-50.983 0-92.444-41.508-92.444-92.444v-832c0-50.983 41.461-92.444 92.444-92.444h647.111c50.983 0 92.444 41.461 92.444 92.444v712.469l-211.975 211.975zM184 147.556h-34.667v-69.333h-69.333v277.333h104c57.316 0 104-46.638 104-104s-46.684-104-104-104v0zM403.556 78.222h-69.333v277.333h69.333c76.498 0 138.667-62.169 138.667-138.667s-62.169-138.667-138.667-138.667v0zM787.2 286.222h-152.533v-46.222h115.556v-69.333h-115.556v-92.444h-69.333v208c0 38.226 31.108 69.333 69.333 69.333h152.533v-69.333zM565.333 679.111v231.111l231.111-231.111h-231.111z" />
<glyph unicode="file_office_doc" glyph-name="file-office-doc" horiz-adv-x="853" d="M149.333 286.222v-138.667c38.272 0 69.333 31.108 69.333 69.333s-31.061 69.333-69.333 69.333v0zM415.111 286.222c-19.136 0-34.667-15.531-34.667-34.667v-69.333c0-19.136 15.531-34.667 34.667-34.667s34.667 15.531 34.667 34.667v69.333c0 19.136-15.531 34.667-34.667 34.667v0zM630.692 956.444h-527.58c-50.983 0-92.444-41.508-92.444-92.444v-832c0-50.983 41.461-92.444 92.444-92.444h647.111c50.983 0 92.444 41.461 92.444 92.444v712.469l-211.975 211.975zM149.333 78.222h-69.333v277.333h69.333c76.498 0 138.667-62.169 138.667-138.667s-62.169-138.667-138.667-138.667v0zM519.111 182.222c0-57.362-46.638-104-104-104s-104 46.638-104 104v69.333c0 57.362 46.638 104 104 104s104-46.638 104-104v-69.333zM773.333 286.222h-104c-19.136 0-34.667-15.531-34.667-34.667v-69.333c0-19.136 15.531-34.667 34.667-34.667h104v-69.333h-104c-57.362 0-104 46.638-104 104v69.333c0 57.362 46.638 104 104 104h104v-69.333zM565.333 679.111v231.111l231.111-231.111h-231.111z" />
<glyph unicode="file_new" glyph-name="file-new" horiz-adv-x="853" d="M596.608 958.578h-468.608c-54.905 0-99.556-44.7-99.556-99.556v-796.444c0-54.905 44.651-99.556 99.556-99.556h597.333c54.905 0 99.556 44.651 99.556 99.556v667.719l-228.281 228.281zM177.778 460.8h398.222v-99.556h-398.222v99.556zM675.556 162.133h-497.778v99.556h497.778v-99.556zM526.222 659.911v248.889l248.889-248.889h-248.889z" />
<glyph unicode="facebook" glyph-name="facebook" horiz-adv-x="555" d="M544.768 641.493h-182.101v81.28c0 38.229 25.344 47.147 43.179 47.147h127.488v168.192l-184.704 0.555c-167.552 0-199.296-125.355-199.296-205.653v-91.477h-128v-170.667h128v-512h213.333v512h164.309l17.792 170.624z" />
<glyph unicode="content_filter" glyph-name="content-filter" d="M819.2 960h-614.4c-56.474 0-102.4-45.978-102.4-102.4h819.2c0 56.422-45.875 102.4-102.4 102.4v0zM102.4 806.349v-102.4c0-13.107 5.018-26.214 15.002-36.198l292.198-292.198v-388.352c0-20.685 12.493-39.373 31.59-47.309 6.349-2.662 13.005-3.891 19.61-3.891 13.312 0 26.419 5.222 36.198 15.002l102.4 102.4c9.574 9.574 15.002 22.579 15.002 36.198v286.003l292.198 292.198c9.984 9.984 15.002 23.040 15.002 36.147v102.4h-819.2z" />
<glyph unicode="contact_book" glyph-name="contact-book" d="M921.6 960h-716.8c-56.576 0-102.4-45.824-102.4-102.4v-51.2h102.4v-51.2h-204.8v-102.4h102.4v-153.6h102.4v-51.2h-204.8v-102.4h102.4v-153.6h102.4v-51.2h-204.8v-102.4h102.4c0-56.525 45.824-102.4 102.4-102.4h716.8c56.525 0 102.4 45.875 102.4 102.4v819.2c0 56.576-45.824 102.4-102.4 102.4v0zM594.278 297.011c10.598 10.598 27.699 10.598 38.246 0l76.39-76.39c10.547-10.598 10.547-27.597 0-38.195l-76.39-76.39c-10.547-10.547-27.648-10.547-38.246 0l-95.437 95.437 0.512 0.512c-119.091 129.024-119.091 328.499 0 457.421l-0.512 0.512 95.437 95.539c10.598 10.547 27.699 10.547 38.246 0l76.39-76.39c10.547-10.598 10.547-27.699 0-38.195l-76.39-76.442c-10.547-10.547-27.648-10.547-38.246 0l-37.222 37.12c-87.347-97.126-87.347-244.531 0-341.811l37.222 37.274z" />
<glyph unicode="computer_screen" glyph-name="computer-screen" d="M721.971 89.6h-419.942l-78.029-62.413c-16.998-13.619-23.552-36.403-16.333-56.934s26.573-34.253 48.333-34.253h512c21.76 0 41.114 13.722 48.333 34.253 7.168 20.531 0.666 43.366-16.333 56.934l-78.029 62.413zM921.6 960c56.474 0 102.4-45.926 102.4-102.4v-614.4c0-56.474-45.926-102.4-102.4-102.4h-819.2c-56.474 0-102.4 45.926-102.4 102.4v614.4c0 56.474 45.926 102.4 102.4 102.4h819.2zM512 813.918c-145.33 0-263.518-118.188-263.518-263.518 0-145.374 118.188-263.518 263.518-263.518s263.518 118.144 263.518 263.518c0 145.33-118.188 263.518-263.518 263.518zM336.321 550.4c0 96.843 78.792 175.679 175.679 175.679 32.457 0 62.585-9.531 88.718-24.902l-239.494-239.494c-15.416 26.132-24.902 56.217-24.902 88.718zM512 374.721c-32.457 0-62.542 9.399-88.674 24.859l239.45 239.45c15.46-26.088 24.902-56.173 24.902-88.63 0-96.887-78.792-175.679-175.679-175.679z" />
<glyph unicode="check_circle" glyph-name="check-circle" d="M514.091 946.347c-274.923 0-497.778-221.582-497.778-494.933s222.855-494.933 497.778-494.933c274.923 0 497.778 221.582 497.778 494.933s-222.905 494.933-497.778 494.933v0zM476.757 166.827l-248.889 185.6 74.667 98.987 149.333-111.36 261.333 346.453 99.556-74.24-336-445.44z" />
<glyph unicode="calendar" glyph-name="calendar" d="M928 842.667h-138.667v92.444h-92.444v-277.333h92.444v92.444h138.667v-693.333h-832v693.333h92.444v92.444h-92.444c-51.029 0-92.444-41.369-92.444-92.444v-693.333c0-51.029 41.415-92.444 92.444-92.444h832c51.029 0 92.444 41.415 92.444 92.444v693.333c0 51.076-41.415 92.444-92.444 92.444v0zM327.111 750.222h323.556v92.444h-323.556v92.444h-92.444v-277.333h92.444zM188.444 565.333h184.889v-184.889h-184.889v184.889zM419.556 565.333h184.889v-184.889h-184.889v184.889zM650.667 565.333h184.889v-184.889h-184.889v184.889zM188.444 334.222h184.889v-184.889h-184.889v184.889zM419.556 334.222h184.889v-184.889h-184.889v184.889z" />
<glyph unicode="calculator" glyph-name="calculator" d="M930.909 960h-837.818c-51.386 0-93.091-41.798-93.091-93.091v-837.818c0-51.34 41.705-93.091 93.091-93.091h837.818c51.386 0 93.091 41.751 93.091 93.091v837.818c0 51.293-41.705 93.091-93.091 93.091v0zM930.816 494.545h-372.271v372.364h372.364l-0.093-372.364zM465.455 866.909v-372.364h-372.364v372.364h372.364zM93.091 401.455h372.364v-372.364h-372.364v372.364zM558.545 29.091v372.364h372.271l-0.047-372.364h-372.224zM605.091 727.273h279.273v-93.091h-279.273v93.091zM605.091 354.909h279.273v-93.091h-279.273v93.091zM605.091 168.727h279.273v-93.091h-279.273v93.091zM232.727 541.091h93.091v93.091h93.091v93.091h-93.091v93.091h-93.091v-93.091h-93.091v-93.091h93.091zM405.271 275.456l-65.815 65.815-60.183-60.183-60.183 60.183-65.815-65.815 60.183-60.183-60.183-60.183 65.815-65.815 60.183 60.183 60.183-60.183 65.815 65.815-60.183 60.183z" />
<glyph unicode="briefcase" glyph-name="briefcase" d="M611.556 261.689h-199.111v99.556h-348.444v-298.667c0-54.905 44.7-99.556 99.556-99.556h696.889c54.955 0 99.556 44.651 99.556 99.556v298.667h-348.444v-99.556zM960 759.467h-248.889v149.333c0 27.477-22.251 49.778-49.778 49.778h-298.667c-27.477 0-49.778-22.3-49.778-49.778v-149.333h-248.889c-27.477 0-49.778-22.3-49.778-49.778v-248.889c0-27.477 22.3-49.778 49.778-49.778h348.444v49.778h199.111v-49.778h348.444c27.527 0 49.778 22.3 49.778 49.778v248.889c0 27.477-22.251 49.778-49.778 49.778v0zM611.556 759.467h-199.111v99.556h199.111v-99.556z" />
<glyph unicode="at_sign" glyph-name="at-sign" d="M512 936.727c-269.452 0-488.727-219.229-488.727-488.727s219.276-488.727 488.727-488.727c99.654 0 195.165 29.463 276.247 85.085l-78.988 115.2c-57.763-39.657-125.999-60.649-197.26-60.649-192.512 0-349.091 156.579-349.091 349.091s156.579 349.091 349.091 349.091c192.512 0 349.091-156.579 349.091-349.091v-36.445c0-29.836-6.656-79.919-51.2-79.919h-18.572c-13.591 0.512-41.053 27.089-41.937 40.448v75.916c0 130.886-106.496 237.382-237.382 237.382s-237.382-106.449-237.382-237.382c0-130.932 106.449-237.382 237.382-237.382 54.505 0 104.169 19.177 144.337 50.223 34.956-40.262 84.945-68.841 134.935-68.841h18.618c112.361 0 190.836 90.252 190.836 219.555v36.445c0 269.498-219.276 488.727-488.727 488.727v0zM512 350.301c-53.9 0-97.745 43.799-97.745 97.745 0 53.853 43.799 97.745 97.745 97.745s97.745-43.846 97.745-97.745c0-53.946-43.846-97.745-97.745-97.745v0z" />
<glyph unicode="alarm_clock" glyph-name="alarm-clock" d="M512 960c-282.283 0-512-229.717-512-512s229.717-512 512-512c282.283 0 512 229.717 512 512s-229.717 512-512 512v0zM642.446 237.17l-170.667 170.667c-10.638 10.638-16.668 25.088-16.668 40.164v284.444h113.778v-260.892l153.998-153.998-80.441-80.384z" />
</font>
</defs>
</svg>
